<svg width="67" height="64" viewBox="0 0 67 64" fill="none" xmlns="http://www.w3.org/2000/svg">
<path d="M35.4327 1.55786C18.8914 1.55786 5.44373 14.8307 5.44373 31.1569C5.44373 47.4832 18.8914 60.756 35.4327 60.756C51.9739 60.756 65.4216 47.4832 65.4216 31.1569C65.4216 14.8307 51.9739 1.55786 35.4327 1.55786ZM35.4327 50.1004C24.8261 50.1004 16.2397 41.6257 16.2397 31.1569C16.2397 20.6882 24.8261 12.2135 35.4327 12.2135C46.0393 12.2135 54.6256 20.6882 54.6256 31.1569C54.6256 41.6257 46.0393 50.1004 35.4327 50.1004Z" fill="black"/>
<path d="M35.4327 15.0176C26.4044 15.0176 19.0808 22.2461 19.0808 31.1569C19.0808 40.0678 26.4044 47.2962 35.4327 47.2962C44.4609 47.2962 51.7846 40.0678 51.7846 31.1569C51.7846 22.2461 44.4609 15.0176 35.4327 15.0176ZM47.2389 25.1125L40.3572 27.2935C39.6627 26.4211 38.6526 25.7356 37.5793 25.2994V18.1957C41.8093 18.8811 45.3448 21.4983 47.2389 25.1125ZM35.4327 28.1035C37.1373 28.1035 38.5263 29.4745 38.5263 31.1569C38.5263 32.8394 37.1373 34.2103 35.4327 34.2103C33.7281 34.2103 32.3391 32.8394 32.3391 31.1569C32.3391 29.4745 33.7281 28.1035 35.4327 28.1035ZM33.2861 18.1957V25.2994C32.1497 25.6733 31.2027 26.3588 30.5082 27.2935L23.6265 25.1125C25.5205 21.4983 29.0561 18.8811 33.2861 18.1957ZM22.1113 31.1569C22.1113 30.4715 22.1744 29.786 22.3007 29.1006L29.1823 31.2816C29.1823 32.5279 29.6243 33.6495 30.2556 34.5842L26.0256 40.3794C23.6265 38.0115 22.1113 34.7711 22.1113 31.1569ZM29.4349 42.8719L33.6649 37.0768C34.2331 37.2637 34.8013 37.326 35.4327 37.326C36.064 37.326 36.6322 37.2637 37.2005 37.0768L41.4305 42.8719C39.5996 43.8066 37.5793 44.3051 35.4327 44.3051C33.2861 44.3051 31.2027 43.7443 29.4349 42.8719ZM44.9029 40.3794L40.6729 34.5842C41.3042 33.6495 41.683 32.5279 41.7462 31.2816L48.6278 29.1006C48.7541 29.786 48.8172 30.4715 48.8172 31.1569C48.7541 34.7711 47.2389 38.0115 44.9029 40.3794Z" fill="#60689C"/>
</svg>
